<?xml version="1.0" encoding="iso-8859-1"?>
<!-- Generator: Adobe Illustrator 19.0.0, SVG Export Plug-In . SVG Version: 6.00 Build 0)  -->
<svg version="1.1" id="Capa_1" xmlns="http://www.w3.org/2000/svg" xmlns:xlink="http://www.w3.org/1999/xlink" x="0px" y="0px"
	 viewBox="0 0 512 512" style="enable-background:new 0 0 512 512;" xml:space="preserve">
<g>
	<g>
		<path d="M493.124,138.891c-15.674-4.458-28.273,4.194-34.164,20.05l-33.66,66c-3.528-2.319-7.952-4.034-13.15-4.034
			c-8.056,0-8.648,1.222-55.655,24.948c-9.341,4.714-16.151,11.896-16.951,12.758c-0.051,0.054-0.1,0.109-0.148,0.164
			l-15.716,17.908c-0.041,0.046-0.081,0.093-0.12,0.14c-1.357,1.619-13.217,16.036-17.789,30.762
			c-0.017,0.048-0.031,0.097-0.047,0.146l-7.878,25.622c-4.58-0.523-4.791-0.572-5.795-0.572c-6.997,0-12.871,5.246-13.663,12.202
			c-0.054,0.475-10.342,90.487-10.363,90.965c-0.496,12.077,6.89,21.048,20.646,21.048h33.018c4.143,0,7.499-3.358,7.499-7.499
			s-3.357-7.499-7.499-7.499c-34.709,0-36.128,0.416-37.677-1.198c-0.676-0.704-1.048-2.186-1.009-3.993l6.17-54.063l95.021,10.845
			l-4.835,42.359c-0.555,4.847-4.141,5.878-6.318,6.05h-16.356c-4.143,0-7.499,3.358-7.499,7.499c0,4.142,3.357,7.499,7.499,7.499
			h16.592c7.041,0,19.337-4.956,20.984-19.345c5.723-50.143,2.288-20.037,8.95-78.42c0.418-3.653-0.612-7.248-2.899-10.126
			c-0.999-1.257-2.195-2.297-3.52-3.121c2.882-3.229,5.945-7.318,14.518-11.647c0.225-0.113,35.469-17.897,35.687-18.021
			c6.182-3.501,21.059-13.738,26.201-33.404c0.167-0.479,37.495-107.66,37.621-108.152
			C514.735,159.429,508.925,143.4,493.124,138.891z M385.895,378.689l-47.511-5.422l-47.511-5.422l2.275-19.93
			c10.725,1.224,84.427,9.636,95.02,10.845L385.895,378.689z M496.36,170.767c-0.106,0.306-37.465,107.602-37.554,107.912
			c-3.227,11.059-9.54,19.06-19.051,24.505c-49.714,25.092-42.862,20.17-60.127,39.506l-66.623-7.604
			c11.627-37.813,9.176-33.956,37.599-66.339c0.441-0.47,5.739-6.013,12.65-9.501c46.449-23.444,45.296-23.338,48.896-23.338
			c3.582,0,7.049,2.592,8.707,5.416c1.375,2.287,2.783,6.559,1.893,9.722c-1.219,4.327-2.557,4.115-41.742,23.892
			c-7.047,3.558-4.449,14.195,3.386,14.195c2.448,0,0.328,0.731,39.661-19.122c13.117-6.621,17.061-19.223,11.63-32.417
			c0.289-0.568,36.933-72.367,37.162-72.959c3.011-8.106,7.76-13.649,16.06-11.352C498.833,156.538,497.237,167.129,496.36,170.767z
			"/>
	</g>
</g>
<g>
	<g>
		<path d="M240.546,435.548c-0.009-0.102-10.323-90.463-10.334-90.563c-0.861-7.542-7.655-12.974-15.23-12.112l-4.229,0.482
			c-0.023-0.076-7.909-25.719-7.909-25.719c-5.918-19.119-21.15-34.625-33.64-48.858c-0.089-0.101-0.181-0.2-0.273-0.295
			c-1.174-1.248-7.818-8.079-16.827-12.627l-43.081-21.745c-4.211-2.126-8.441-3.204-12.574-3.204
			c-5.044,0-9.359,1.615-12.835,3.829l-30.591-65.67c-4.996-13.561-14.557-21.336-26.242-21.336c-2.579,0-5.259,0.39-7.968,1.161
			c-0.077,0.022-0.153,0.045-0.229,0.069C-0.83,145.16-1.53,164.382,1.118,174.762c0.035,0.139,0.075,0.277,0.118,0.415
			L35.363,282.78c3.994,15.431,15.72,28.296,26.555,33.708c45.212,22.82,41.636,20.255,49.894,29.506
			c-4.37,2.723-7.044,7.79-6.423,13.239c0.025,0.218,3.265,28.608,3.265,28.608l5.685,49.815
			c1.599,13.964,13.456,19.343,20.985,19.343h84.604C234.521,456.999,241.589,446.596,240.546,435.548z M68.843,303.184
			c-4.609-2.639-15.308-10.107-18.965-24.18c-0.103-0.431-34.142-107.719-34.276-108.141c-0.87-3.547-2.581-14.297,7.431-17.579
			c1.331-0.369,2.592-0.556,3.749-0.556c6.344,0,10.091,5.966,12.312,11.908c0.063,0.165,0.131,0.326,0.205,0.486l33.684,72.312
			c-5.463,13.079-1.762,25.852,11.562,32.577l36.288,18.316c1.084,0.547,2.237,0.806,3.374,0.806c2.741,0,5.381-1.508,6.7-4.122
			c1.866-3.698,0.382-8.208-3.315-10.074c-39.452-19.913-40.5-19.625-41.726-23.838c-0.942-3.248,0.575-7.615,1.863-9.746
			c0.01-0.017,0.022-0.032,0.032-0.049c0.134-0.22,3.322-5.398,8.689-5.398c1.763,0,3.72,0.536,5.814,1.594l43.081,21.745
			c5.925,2.991,11.257,7.927,12.704,9.56c28.571,32.559,26.042,28.871,37.546,66.281l-66.624,7.604
			C111.455,323.075,118.384,328.189,68.843,303.184z M120.43,358.761c8.694-0.992,84.615-9.657,95.021-10.845l2.275,19.93
			c-8.982,1.025-85.41,9.748-95.021,10.845L120.43,358.761z M219.928,442h-84.455c-1.13-0.058-5.612-0.63-6.232-6.047l-4.834-42.362
			c8.982-1.025,85.41-9.748,95.021-10.845l6.169,54.052C225.682,440.69,224.42,442,219.928,442z"/>
	</g>
</g>
<g>
	<g>
		<path d="M197.682,96.093c-13.315-26.715-52.536-21.943-59.498,6.717c-8.298-3.602-18.133-3.641-26.886,0.722
			c-15.729,7.842-22.147,27.019-14.307,42.748c16.937,33.978,61.219,36.619,74.387,36.619c2.03,0,3.234-0.064,3.364-0.07
			c2.063-0.114,3.986-1.073,5.318-2.651C181.588,178.367,217.266,135.383,197.682,96.093z M170.609,167.898
			c-57.137-0.481-74.632-39.967-52.619-50.942c2.364-1.178,4.887-1.775,7.5-1.775c8.273,0,8.975,4.599,15.708,4.599
			c7.284,0,10.909-6.533,11.109-10.352c0.919-17.193,24.213-22.167,31.952-6.644C197.093,128.532,177.214,158.933,170.609,167.898z"
			/>
	</g>
</g>
<g>
	<g>
		<path d="M291.4,73.787c11.54,5.751,19.137,17.341,19.826,30.247c0.389,7.219,8.795,16.412,20.348,11.605
			c0.495-0.196,0.973-0.447,1.426-0.751c19.614-13.202,46.439-4.215,54.061,18.192c1.335,3.921,5.593,6.017,9.516,4.684
			c3.921-1.334,6.018-5.594,4.685-9.515c-10.553-31.018-47.29-44.17-75.179-26.748c-1.544-17.588-12.145-33.239-27.99-41.136
			c-25.179-12.552-55.71-2.331-68.262,22.85c-13.841,27.772-12.84,61.491,2.897,97.51c11.63,26.619,27.061,45.048,27.713,45.82
			c1.333,1.578,3.257,2.538,5.318,2.651c0.278,0.015,2.33,0.121,5.758,0.121c8.797-0.001,26.646-0.697,46.743-5.402
			c37.769-8.843,65.238-27.78,79.437-54.762c1.93-3.666,0.522-8.2-3.144-10.129c-3.671-1.93-8.202-0.52-10.129,3.145
			c-26.254,49.889-98.3,52.262-114.565,52.125c-10.003-13.022-52.259-72.92-26.605-124.389
			C252.104,72.144,273.637,64.935,291.4,73.787z"/>
	</g>
</g>
<g>
</g>
<g>
</g>
<g>
</g>
<g>
</g>
<g>
</g>
<g>
</g>
<g>
</g>
<g>
</g>
<g>
</g>
<g>
</g>
<g>
</g>
<g>
</g>
<g>
</g>
<g>
</g>
<g>
</g>
</svg>
